HIERARCHY
ROOT Hips
{
  OFFSET 0.849866 78.6569 -0.536788
  CHANNELS 6 Xposition Yposition Zposition Zrotation Xrotation Yrotation
  JOINT Bip01_Pelvis
  {
    OFFSET 0 0 0
    CHANNELS 6 Xposition Yposition Zposition Zrotation Xrotation Yrotation
    JOINT BN_Tail_01
    {
      OFFSET -5.52397 -0.332285 0
      CHANNELS 6 Xposition Yposition Zposition Zrotation Xrotation Yrotation
      JOINT BN_Tail_02
      {
        OFFSET 6.48885 -2.032e-005 0
        CHANNELS 6 Xposition Yposition Zposition Zrotation Xrotation Yrotation
        JOINT BN_Tail_03
        {
          OFFSET 7.08759 1.016e-005 -0.00261112
          CHANNELS 6 Xposition Yposition Zposition Zrotation Xrotation Yrotation
          End Site
          {
            OFFSET 0 0 0
          }
        }
      }
    }
    JOINT Bip01_Spine
    {
      OFFSET 4.02227 0.398968 0
      CHANNELS 6 Xposition Yposition Zposition Zrotation Xrotation Yrotation
      JOINT BN_UpperArm_R_01
      {
        OFFSET 4.84413 -3.22857 -3.65581
        CHANNELS 6 Xposition Yposition Zposition Zrotation Xrotation Yrotation
        JOINT BN_Forearm_R_01
        {
          OFFSET 8.51614 0 0
          CHANNELS 6 Xposition Yposition Zposition Zrotation Xrotation Yrotation
          JOINT BN_hand_R_01
          {
            OFFSET 10.1924 0 0
            CHANNELS 6 Xposition Yposition Zposition Zrotation Xrotation Yrotation
            JOINT BN_Finger_R_02
            {
              OFFSET 14.5949 -1.43855 0.585079
              CHANNELS 6 Xposition Yposition Zposition Zrotation Xrotation Yrotation
              End Site
              {
                OFFSET 0 0 0
              }
            }
            JOINT BN_Finger_R_01
            {
              OFFSET 14.4623 0 0
              CHANNELS 6 Xposition Yposition Zposition Zrotation Xrotation Yrotation
              End Site
              {
                OFFSET 0 0 0
              }
            }
          }
        }
      }
      JOINT BN_UpperArm_L_01
      {
        OFFSET 4.84412 -3.22858 3.65557
        CHANNELS 6 Xposition Yposition Zposition Zrotation Xrotation Yrotation
        JOINT BN_Forearm_L_01
        {
          OFFSET 8.51611 0 0
          CHANNELS 6 Xposition Yposition Zposition Zrotation Xrotation Yrotation
          JOINT BN_hand_L_01
          {
            OFFSET 10.1924 0 0
            CHANNELS 6 Xposition Yposition Zposition Zrotation Xrotation Yrotation
            JOINT BN_Finger_L_01
            {
              OFFSET 14.4623 0 0
              CHANNELS 6 Xposition Yposition Zposition Zrotation Xrotation Yrotation
              End Site
              {
                OFFSET 0 0 0
              }
            }
            JOINT BN_Finger_L_02
            {
              OFFSET 14.5949 1.43855 0.585071
              CHANNELS 6 Xposition Yposition Zposition Zrotation Xrotation Yrotation
              End Site
              {
                OFFSET 0 0 0
              }
            }
          }
        }
      }
      JOINT Bip01_R_Thigh
      {
        OFFSET -4.03411 -0.254132 -3.45377
        CHANNELS 6 Xposition Yposition Zposition Zrotation Xrotation Yrotation
        JOINT Bip01_R_Calf
        {
          OFFSET 3.92618 0 0
          CHANNELS 6 Xposition Yposition Zposition Zrotation Xrotation Yrotation
          JOINT Bip01_R_HorseLink
          {
            OFFSET 6.12319 0 0
            CHANNELS 6 Xposition Yposition Zposition Zrotation Xrotation Yrotation
            JOINT Bip01_R_Foot
            {
              OFFSET 9.94776 0 0
              CHANNELS 6 Xposition Yposition Zposition Zrotation Xrotation Yrotation
              JOINT Bip01_R_Toe3
              {
                OFFSET 0.881252 -0.110953 0.0158496
                CHANNELS 6 Xposition Yposition Zposition Zrotation Xrotation Yrotation
                JOINT Bip01_R_Toe31
                {
                  OFFSET 2.32137 0 0
                  CHANNELS 6 Xposition Yposition Zposition Zrotation Xrotation Yrotation
                  JOINT Bip01_R_Toe32
                  {
                    OFFSET 1.63293 0 0
                    CHANNELS 6 Xposition Yposition Zposition Zrotation Xrotation Yrotation
                    JOINT Bip01_R_Toe3Nub
                    {
                      OFFSET 1.72131 0 0
                      CHANNELS 6 Xposition Yposition Zposition Zrotation Xrotation Yrotation
                      End Site
                      {
                        OFFSET 0 0 0
                      }
                    }
                  }
                }
              }
              JOINT Bip01_R_Toe2
              {
                OFFSET 0.994751 0.967285 -1.09428
                CHANNELS 6 Xposition Yposition Zposition Zrotation Xrotation Yrotation
                JOINT Bip01_R_Toe21
                {
                  OFFSET 2.20201 0 0
                  CHANNELS 6 Xposition Yposition Zposition Zrotation Xrotation Yrotation
                  JOINT Bip01_R_Toe22
                  {
                    OFFSET 1.84925 0 0
                    CHANNELS 6 Xposition Yposition Zposition Zrotation Xrotation Yrotation
                    JOINT Bip01_R_Toe2Nub
                    {
                      OFFSET 1.70976 0 0
                      CHANNELS 6 Xposition Yposition Zposition Zrotation Xrotation Yrotation
                      End Site
                      {
                        OFFSET 0 0 0
                      }
                    }
                  }
                }
              }
              JOINT Bip01_R_Toe1
              {
                OFFSET 1.3748 1.34027 -0.0712419
                CHANNELS 6 Xposition Yposition Zposition Zrotation Xrotation Yrotation
                JOINT Bip01_R_Toe11
                {
                  OFFSET 2.26122 0 0
                  CHANNELS 6 Xposition Yposition Zposition Zrotation Xrotation Yrotation
                  JOINT Bip01_R_Toe12
                  {
                    OFFSET 2.22215 0 0
                    CHANNELS 6 Xposition Yposition Zposition Zrotation Xrotation Yrotation
                    JOINT Bip01_R_Toe1Nub
                    {
                      OFFSET 1.61867 0 0
                      CHANNELS 6 Xposition Yposition Zposition Zrotation Xrotation Yrotation
                      End Site
                      {
                        OFFSET 0 0 0
                      }
                    }
                  }
                }
              }
              JOINT Bip01_R_Toe0
              {
                OFFSET 1.40695 0.687986 0.883783
                CHANNELS 6 Xposition Yposition Zposition Zrotation Xrotation Yrotation
                JOINT Bip01_R_Toe01
                {
                  OFFSET 2.26828 0 0
                  CHANNELS 6 Xposition Yposition Zposition Zrotation Xrotation Yrotation
                  JOINT Bip01_R_Toe02
                  {
                    OFFSET 2.09769 0 0
                    CHANNELS 6 Xposition Yposition Zposition Zrotation Xrotation Yrotation
                    JOINT Bip01_R_Toe0Nub
                    {
                      OFFSET 1.53753 0 0
                      CHANNELS 6 Xposition Yposition Zposition Zrotation Xrotation Yrotation
                      End Site
                      {
                        OFFSET 0 0 0
                      }
                    }
                  }
                }
              }
            }
          }
        }
      }
      JOINT Bip01_L_Thigh
      {
        OFFSET -4.03411 -0.254147 3.45377
        CHANNELS 6 Xposition Yposition Zposition Zrotation Xrotation Yrotation
        JOINT Bip01_L_Calf
        {
          OFFSET 3.92616 0 0
          CHANNELS 6 Xposition Yposition Zposition Zrotation Xrotation Yrotation
          JOINT Bip01_L_HorseLink
          {
            OFFSET 6.1232 0 0
            CHANNELS 6 Xposition Yposition Zposition Zrotation Xrotation Yrotation
            JOINT Bip01_L_Foot
            {
              OFFSET 9.94775 0 0
              CHANNELS 6 Xposition Yposition Zposition Zrotation Xrotation Yrotation
              JOINT Bip01_L_Toe3
              {
                OFFSET 0.881246 -0.110986 -0.0157582
                CHANNELS 6 Xposition Yposition Zposition Zrotation Xrotation Yrotation
                JOINT Bip01_L_Toe31
                {
                  OFFSET 2.32136 0 0
                  CHANNELS 6 Xposition Yposition Zposition Zrotation Xrotation Yrotation
                  JOINT Bip01_L_Toe32
                  {
                    OFFSET 1.63293 0 0
                    CHANNELS 6 Xposition Yposition Zposition Zrotation Xrotation Yrotation
                    JOINT Bip01_L_Toe3Nub
                    {
                      OFFSET 1.7213 0 0
                      CHANNELS 6 Xposition Yposition Zposition Zrotation Xrotation Yrotation
                      End Site
                      {
                        OFFSET 0 0 0
                      }
                    }
                  }
                }
              }
              JOINT Bip01_L_Toe2
              {
                OFFSET 0.994649 0.967162 1.09447
                CHANNELS 6 Xposition Yposition Zposition Zrotation Xrotation Yrotation
                JOINT Bip01_L_Toe21
                {
                  OFFSET 2.202 0 0
                  CHANNELS 6 Xposition Yposition Zposition Zrotation Xrotation Yrotation
                  JOINT Bip01_L_Toe22
                  {
                    OFFSET 1.84926 0 0
                    CHANNELS 6 Xposition Yposition Zposition Zrotation Xrotation Yrotation
                    JOINT Bip01_L_Toe2Nub
                    {
                      OFFSET 1.70976 0 0
                      CHANNELS 6 Xposition Yposition Zposition Zrotation Xrotation Yrotation
                      End Site
                      {
                        OFFSET 0 0 0
                      }
                    }
                  }
                }
              }
              JOINT Bip01_L_Toe1
              {
                OFFSET 1.37483 1.34021 0.0715086
                CHANNELS 6 Xposition Yposition Zposition Zrotation Xrotation Yrotation
                JOINT Bip01_L_Toe11
                {
                  OFFSET 2.26124 0 0
                  CHANNELS 6 Xposition Yposition Zposition Zrotation Xrotation Yrotation
                  JOINT Bip01_L_Toe12
                  {
                    OFFSET 2.22214 0 0
                    CHANNELS 6 Xposition Yposition Zposition Zrotation Xrotation Yrotation
                    JOINT Bip01_L_Toe1Nub
                    {
                      OFFSET 1.61867 0 0
                      CHANNELS 6 Xposition Yposition Zposition Zrotation Xrotation Yrotation
                      End Site
                      {
                        OFFSET 0 0 0
                      }
                    }
                  }
                }
              }
              JOINT Bip01_L_Toe0
              {
                OFFSET 1.40707 0.688009 -0.883564
                CHANNELS 6 Xposition Yposition Zposition Zrotation Xrotation Yrotation
                JOINT Bip01_L_Toe01
                {
                  OFFSET 2.26828 0 0
                  CHANNELS 6 Xposition Yposition Zposition Zrotation Xrotation Yrotation
                  JOINT Bip01_L_Toe02
                  {
                    OFFSET 2.0977 0 0
                    CHANNELS 6 Xposition Yposition Zposition Zrotation Xrotation Yrotation
                    JOINT Bip01_L_Toe0Nub
                    {
                      OFFSET 1.53752 0 0
                      CHANNELS 6 Xposition Yposition Zposition Zrotation Xrotation Yrotation
                      End Site
                      {
                        OFFSET 0 0 0
                      }
                    }
                  }
                }
              }
            }
          }
        }
      }
      JOINT Bip01_Spine1
      {
        OFFSET 4.90674 -0.00437896 0
        CHANNELS 6 Xposition Yposition Zposition Zrotation Xrotation Yrotation
        JOINT Bip01_Neck
        {
          OFFSET 5.56447 -1.28357 0
          CHANNELS 6 Xposition Yposition Zposition Zrotation Xrotation Yrotation
          JOINT Bip01_Neck1
          {
            OFFSET 2.79308 -0.00219964 0
            CHANNELS 6 Xposition Yposition Zposition Zrotation Xrotation Yrotation
            JOINT Bip01_Head
            {
              OFFSET 2.79272 0 0
              CHANNELS 6 Xposition Yposition Zposition Zrotation Xrotation Yrotation
              JOINT BN_Mouth_01
              {
                OFFSET 4.19089 0.0665938 0
                CHANNELS 6 Xposition Yposition Zposition Zrotation Xrotation Yrotation
                End Site
                {
                  OFFSET 0 0 0
                }
              }
              JOINT Bip01_HeadNub
              {
                OFFSET 6.95118 0 0
                CHANNELS 6 Xposition Yposition Zposition Zrotation Xrotation Yrotation
                End Site
                {
                  OFFSET 0 0 0
                }
              }
            }
          }
        }
      }
    }
  }
}
MOTION
Frames:	3
Frame Time:	0.0333333
0.849866 14.5652 0 -4.95581 -89.9999 78.0919 0 -1.81899e-012 0 -89.9989 6.1813 -89.9989 -5.52397 -0.332285 5.42101e-020 -21.8976 -2.75886 179.942 6.48885 1.77636e-015 1.11022e-016 -17.5049 6.43512e-008 -2.41745e-008 7.0876 0 1.11022e-016 -12.1122 6.73629e-008 -3.6964e-008 4.02139 0.398892 5.42101e-020 -2.32927 -0.003496 -7.1e-005 4.47626 -4.15455 -0.368369 -63.5335 -63.5599 79.4802 8.51611 0.00071335 -0.000734329 122.432 77.109 23.4528 10.1924 0 -0.000551223 -118.736 -10.6266 13.474 14.595 -1.43804 0.584466 -20.7597 0.873421 3.03665 14.4623 -2.86103e-006 -0.00075674 -50.3857 7.41879 0.961796 4.85586 -3.27168 0.771601 119.379 -62.471 -101.244 8.51612 -4.4409e-016 1.90735e-006 -142.165 -70.4685 7.57482 10.1924 -1.90735e-006 0.000810622 126.015 12.5525 18.0226 14.4623 -0.000713351 -4.76837e-007 34.6089 0.296601 7.88099 14.595 1.4379 0.585345 5.55695 -3.4334 13.2431 -4.00186 -0.561804 -3.45378 -102.792 2.9206 -174.482 3.92617 4.76838e-007 -8.88179e-016 -71.1816 -6.91769e-006 -1.61784e-005 6.1232 0 4.44089e-016 103.069 4.76069e-006 1.68987e-005 9.94775 -8.88183e-016 -0.000690937 -59.0039 18.423 -3.41197 0.881238 -0.110943 0.0157327 110.21 -3.28659 176.752 2.32136 -1.19211e-007 -2.98023e-008 46.4406 -1.24159e-006 9.98386e-007 1.63292 0 3.72529e-008 -54.5976 -6.3041e-007 1.43981e-005 1.72129 2.2205e-016 5.96047e-008 -7.42544e-008 4.75837e-007 7.74186e-007 0.994575 0.967267 -1.09445 71.7041 -11.0329 25.3475 2.202 -0.000802767 0 36.9809 -0.0122012 -0.0364904 1.84924 0.00128748 -0.000774622 -30.2688 -1.67547e-005 -1.04696e-005 1.70976 -2.38423e-007 -4.44089e-016 4.37759e-008 1.01064e-005 2.60565e-007 1.37476 1.34029 -0.0714732 79.6986 0.480364 -2.62857 2.26122 0 0.000721395 24.1621 -0.012443 -0.05813 2.22213 0.000571498 -0.00147084 -43.4958 -0.0116576 0.0292382 1.61867 0 -2.98023e-008 -7.68251e-008 1.93617e-007 -3.24693e-007 1.40704 0.688039 0.883567 81.4118 5.31129 -42.479 2.26827 0.000533469 0.000620365 29.2014 -0.0105822 -0.0406164 2.09769 -0.000866189 -0.000881194 -55.0388 0.00621684 0.00322905 1.53752 0 4.76837e-007 -9.0689e-007 8.84474e-007 -6.7321e-007 -4.00178 -0.562607 3.45375 -49.7426 -3.9873 178.86 3.92617 -4.76838e-007 0 -31.3827 -3.33059e-008 -1.17711e-007 6.1232 -1.77636e-015 2.38419e-007 110.17 5.49278e-006 1.62165e-005 9.94776 -1.33227e-015 -0.000835657 -50.6667 -16.2714 3.29018 0.881243 -0.110905 -0.015893 110.813 3.33973 -176.774 2.32136 0.000535971 -2.38419e-007 54.4402 -5.18349e-006 1.93104e-006 1.63293 -2.98028e-008 0 -61.518 -6.19107e-006 7.00217e-006 1.72129 0 0 -179.961 0.00521 0.0020896 0.994744 0.967368 1.09421 74.9893 9.47691 -25.8979 2.20201 0 0.000579118 40.0409 -0.0107758 -0.0295783 1.84925 -4.44096e-016 -4.44089e-016 -72.6412 -2.51287e-006 -7.36981e-007 1.70976 4.76848e-007 0 -179.961 0.00758249 -0.00375859 1.37472 1.34035 0.0711429 72.3142 -0.819736 2.5656 2.26123 -1.19211e-007 -1.19209e-007 31.1828 -1.19981e-008 1.53577e-006 2.22213 2.22048e-016 -4.44089e-016 -38.5073 1.07919e-005 6.52599e-006 1.61867 -2.38423e-007 -1.19209e-007 -179.961 -0.00405139 -0.00342272 1.40685 0.688048 -0.883867 79.3749 -6.54411 31.2861 2.26828 0 4.17232e-007 26.1651 -1.64119e-005 3.49823e-006 2.0977 -4.44095e-016 1.19209e-007 -61.0221 1.49578e-005 1.85747e-005 1.53752 -1.7764e-015 4.76837e-007 -179.961 -0.000671195 -0.00279001 4.90559 -0.00448227 -0.00037338 -10.9345 4.11779 -0.104888 5.56282 -1.2833 -0.000294626 -40.6065 -0.451114 -1.94565 2.79231 -0.00231409 -0.000264153 -10.7349 -0.00458722 -0.998002 2.79273 0.000831605 2.98023e-008 105.05 -1.74649 2.72057 4.19086 0.0678292 0.000731468 174.856 -0.0365753 -179.992 6.95116 0.0020504 0.00119638 4.42873e-007 -2.7755e-008 -1.45274e-008 
0.640161 13.8038 0.0709377 -19.2975 -89.752 64.4533 0 -1.81899e-012 0 -89.9989 5.76894 -89.9988 -5.52397 -0.332285 6.245e-017 -22.3253 -2.67144 179.897 6.48885 3.55272e-015 0 -18.045 0.0017946 -0.0113008 7.0876 1.77636e-015 2.22045e-016 -13.2253 -0.00132124 0.0114377 4.02421 0.36787 3.24012e-013 -2.36118 -0.415523 0.0758067 4.50908 -4.14956 -2.77023 -66.4793 -60.6004 84.9532 8.51611 0.00071335 -0.000734329 127.919 68.5874 10.6905 10.1924 -1.73018e-011 -0.000551223 -114.772 -7.14227 0.733169 14.595 -1.43804 0.584466 -28.6488 1.09199 11.2473 14.4623 -2.86099e-006 -0.00075674 -29.9387 -0.543835 5.58259 4.83985 -3.26449 1.24921 120.121 -59.3888 -98.0881 8.51612 4.4409e-016 1.90735e-006 -136.898 -37.2958 -5.66579 10.1924 -1.90728e-006 0.000810622 116.537 7.43939 7.38932 14.4623 -0.000713351 -4.76914e-007 23.5941 -4.34744 20.4639 14.595 1.4379 0.585345 23.6572 12.5627 21.5967 -4.00099 -0.507676 -3.46297 -109.886 3.77516 -173.448 3.92617 4.76838e-007 8.88179e-016 -80.743 -4.84272e-006 -1.71674e-005 6.1232 2.66454e-015 8.88179e-016 108.66 6.54969e-006 1.65756e-005 9.94775 -3.62556e-012 -0.000690937 -61.1978 20.0687 -2.45704 0.881238 -0.110943 0.0157327 110.379 -3.66902 177.196 2.32136 -1.19211e-007 -2.98023e-008 46.4406 -1.17274e-006 9.46711e-007 1.63292 4.44097e-016 3.72529e-008 -54.6061 -0.0119604 0.0085117 1.72129 -4.441e-016 5.96047e-008 -7.42544e-008 4.75837e-007 7.74186e-007 0.994574 0.967267 -1.09445 71.8232 -11.6346 25.3869 2.202 -0.000802767 -2.33591e-013 36.9809 -0.0122013 -0.0364904 1.84924 0.00128748 -0.000774622 -30.2688 -2.17711e-005 -1.77794e-006 1.70976 -2.38423e-007 -8.88178e-016 4.37759e-008 1.01064e-005 2.60565e-007 1.37476 1.34029 -0.0714732 79.8207 -0.102632 -2.50539 2.26122 -2.64237e-012 0.000721395 24.1621 -0.012443 -0.05813 2.22213 0.000571498 -0.00147084 -43.4958 -0.0116577 0.0292382 1.61867 -1.77639e-015 -2.98023e-008 -7.6825e-008 1.93617e-007 -3.24693e-007 1.40704 0.688039 0.883567 81.5351 4.72263 -42.3391 2.26827 0.000533469 0.000620365 29.2014 -0.0105818 -0.0406165 2.09769 -0.000866189 -0.000881194 -55.0388 0.00621645 0.00322885 1.53752 5.32919e-015 4.76837e-007 -9.0689e-007 8.84474e-007 -6.7321e-007 -4.01038 -0.55807 3.44434 -67.1279 -1.66987 177.604 3.92617 -4.76838e-007 8.88178e-016 -61.6358 5.81283e-008 -1.3045e-007 6.12319 -1.77636e-015 2.38419e-007 122.261 8.93577e-006 1.466e-005 9.94776 -4.94363e-012 -0.000835657 -48.8545 -14.5505 3.90377 0.881242 -0.110905 -0.015893 110.737 2.88025 -176.496 2.32136 0.000535971 -2.38419e-007 54.4411 0.0027418 0.00196566 1.63293 -2.98028e-008 4.44089e-016 -61.521 -0.000490473 0.000269749 1.72129 -1.3323e-015 0 -179.961 0.00521 0.0020896 0.994744 0.967369 1.09421 74.9627 8.98476 -26.0302 2.20201 4.76957e-013 0.000579118 40.0409 -0.0107757 -0.0295783 1.84925 9.54806e-015 4.44089e-016 -72.6412 -2.54703e-006 -8.19046e-007 1.70976 4.76848e-007 -1.77636e-015 -179.961 0.00758249 -0.00375859 1.37472 1.34035 0.0711429 72.2678 -1.30259 2.41119 2.26123 -1.19211e-007 -1.19209e-007 31.1828 -3.45002e-008 1.50878e-006 2.22213 4.21891e-015 1.11022e-015 -38.5073 1.07244e-005 6.67397e-006 1.61867 -2.38423e-007 -1.19209e-007 -179.961 -0.00405139 -0.00342272 1.40685 0.688048 -0.883867 79.3271 -7.04458 31.1912 2.26828 2.88661e-015 4.17232e-007 26.1651 -1.64262e-005 3.48785e-006 2.0977 2.88662e-015 1.19209e-007 -61.0221 1.4855e-005 1.87821e-005 1.53752 1.7764e-015 4.76837e-007 -179.961 -0.000671195 -0.00279001 4.90559 -0.00448227 -0.00037338 -12.5959 4.30509 -0.588122 5.56282 -1.2833 -0.000294626 -38.7724 -0.990977 -1.32242 2.79231 -0.00231409 -0.000264153 -8.2441 0.338291 -1.29459 2.79273 0.000831605 2.98028e-008 104.054 -0.826676 3.01089 4.19086 0.0678292 0.000731468 175.034 -0.0142212 -179.989 6.95116 0.0020504 0.00119638 4.42873e-007 -2.7755e-008 -1.45274e-008 
0.125778 12.9762 0.244935 -19.7615 -89.1465 64.7725 0 -1.81893e-012 0 -89.9989 5.31265 -89.9988 -5.52397 -0.332285 5.55112e-017 -23.4635 -2.44232 179.784 6.48885 -1.77636e-015 1.11022e-016 -19.3836 -0.000119896 0.000703993 7.0876 3.55272e-015 1.11022e-016 -16.0444 0.000563041 -0.00312538 4.02701 0.337571 7.12763e-013 -2.26725 -0.84225 0.163563 4.5534 -4.148 -5.97418 -71.8076 -53.8748 93.4083 8.51611 0.000713349 -0.000734329 118.901 47.0053 1.25992 10.1924 -5.21007e-012 -0.000551223 -102.043 -1.23719 -18.9296 14.595 -1.43804 0.584467 -43.7264 2.08429 27 14.4623 -2.86108e-006 -0.00075674 1.03015 -13.4067 15.5167 4.80134 -3.25468 2.38567 118.87 -51.7926 -92.442 8.51612 -1.77636e-015 1.90735e-006 -105.218 6.34765 -15.7575 10.1924 -1.90723e-006 0.000810623 95.6069 -1.24538 -9.84784 14.4623 -0.000713351 -4.7676e-007 12.9152 -8.21218 46.2989 14.595 1.4379 0.585345 35.74 27.9952 45.4992 -4.0005 -0.444725 -3.4724 -120.06 4.06587 -171.997 3.92617 4.76838e-007 2.22045e-015 -90.99 -9.19291e-006 -1.82228e-005 6.1232 2.66454e-015 -8.88179e-016 112.532 7.80109e-006 1.62531e-005 9.94775 -7.09925e-012 -0.000690937 -63.7823 21.6135 -1.73356 0.881238 -0.110943 0.0157327 110.483 -4.14635 177.568 2.32136 -1.19211e-007 -2.98023e-008 46.4406 -1.12537e-006 8.88423e-007 1.63292 4.44097e-016 3.72529e-008 -54.6151 -0.0245733 0.0174674 1.72129 -1.3323e-015 5.96047e-008 -7.42544e-008 4.75837e-007 7.74186e-007 0.994574 0.967267 -1.09445 71.9164 -12.23 25.416 2.202 -0.000802767 -4.03233e-013 36.9809 -0.0122014 -0.0364904 1.84924 0.00128748 -0.000774622 -30.2688 -2.17292e-005 -1.73575e-006 1.70976 -2.38423e-007 -4.44089e-016 4.37759e-008 1.01064e-005 2.60565e-007 1.37476 1.34029 -0.0714732 79.9163 -0.686207 -2.39689 2.26122 -2.89506e-012 0.000721395 24.1621 -0.0124429 -0.05813 2.22213 0.000571498 -0.00147084 -43.4958 -0.0116577 0.0292381 1.61867 3.55278e-015 -2.98023e-008 -7.68251e-008 1.93617e-007 -3.24693e-007 1.40704 0.688039 0.883567 81.6247 4.14058 -42.2109 2.26827 0.000533469 0.000620365 29.2014 -0.0105815 -0.0406164 2.09769 -0.000866189 -0.000881194 -55.0388 0.00621605 0.00322853 1.53752 6.21739e-015 4.76837e-007 -9.0689e-007 8.84474e-007 -6.7321e-007 -4.02068 -0.546501 3.43432 -82.9206 0.900927 177.646 3.92617 -4.76838e-007 1.77636e-015 -86.645 1.27706e-007 6.07317e-008 6.12319 0 2.38419e-007 130.759 1.11714e-005 1.31371e-005 9.94776 -1.04313e-011 -0.000835657 -46.7683 -12.8352 4.32581 0.881242 -0.110905 -0.015893 110.396 2.5079 -176.276 2.32136 0.000535971 -2.38419e-007 54.4419 0.00543702 0.00389224 1.63293 -2.98028e-008 8.88178e-016 -61.524 -0.000972086 0.000531005 1.72129 -4.44099e-016 4.44089e-016 -179.961 0.00521 0.0020896 0.994744 0.967369 1.09421 74.6447 8.55527 -26.1416 2.20201 1.66624e-012 0.000579118 40.0409 -0.0107757 -0.0295783 1.84925 3.55276e-015 8.88178e-016 -72.6412 -2.54172e-006 -9.08437e-007 1.70976 4.76848e-007 -8.88178e-016 -179.961 0.00758249 -0.00375859 1.37472 1.34035 0.0711429 71.9313 -1.72507 2.27028 2.26123 -1.19211e-007 -1.19209e-007 31.1828 -2.38135e-007 1.19528e-006 2.22213 1.55433e-015 -6.66134e-016 -38.5073 4.60582e-006 1.44234e-005 1.61867 -2.38423e-007 -1.19209e-007 -179.961 -0.00405139 -0.00342272 1.40685 0.688048 -0.883867 78.9789 -7.47882 31.1037 2.26828 2.88661e-015 4.17232e-007 26.1651 -1.64008e-005 3.54622e-006 2.0977 5.77324e-015 1.19209e-007 -61.0221 1.47813e-005 1.88594e-005 1.53752 2.66459e-015 4.76837e-007 -179.961 -0.000671195 -0.00279002 4.90559 -0.00448227 -0.00037338 -14.5157 4.53197 -1.12657 5.56282 -1.2833 -0.000294626 -37.1826 -1.5283 -0.662411 2.79231 -0.00231409 -0.000264153 -5.80224 0.709474 -1.61335 2.79273 0.000831605 2.98025e-008 103.465 0.184404 3.40883 4.19086 0.0678292 0.000731468 175.209 0.00773621 -179.985 6.95116 0.0020504 0.00119638 4.42873e-007 -2.7755e-008 -1.45274e-008 
